<svg xmlns="http://www.w3.org/2000/svg" viewBox="0 0 62.28 62.28"><defs><style>.cls-1{fill:#f29164;}.cls-2{fill:none;stroke:#f29164;stroke-miterlimit:10;}</style></defs><g id="Calque_2" data-name="Calque 2"><path class="cls-1" d="M32,2.7A29.14,29.14,0,1,1,2.86,31.84,29.17,29.17,0,0,1,32,2.7m0-2A31.14,31.14,0,1,0,63.14,31.84,31.14,31.14,0,0,0,32,.7Z" transform="translate(-0.86 -0.7)"/></g><g id="Calque_13" data-name="Calque 13"><ellipse class="cls-2" cx="19.49" cy="35.37" rx="3" ry="1.17" transform="translate(-20.34 24.08) rotate(-45.93)"/><ellipse class="cls-2" cx="16.09" cy="42.62" rx="3" ry="1.17" transform="translate(-26.58 23.84) rotate(-45.93)"/><ellipse class="cls-2" cx="12.65" cy="44.39" rx="3" ry="1.17" transform="translate(-7.16 1.6) rotate(-8.33)"/><ellipse class="cls-2" cx="17.12" cy="38.61" rx="1.17" ry="3"/></g><g id="Calque_14" data-name="Calque 14"><path class="cls-2" d="M24.1,34.58s-.1.1-.26.23" transform="translate(-0.86 -0.7)"/><path class="cls-2" d="M23.84,34.82c-.86.76-3.63,2.75-4.27-2-.67-5,3.13-4.35,4-4.12l.19.05" transform="translate(-0.86 -0.7)"/></g><g id="Calque_19" data-name="Calque 19"><path class="cls-1" d="M40.05,46.45A15.29,15.29,0,0,1,25.11,34.67l0-.08a15.94,15.94,0,0,1-.39-3.48,14.11,14.11,0,0,1,.18-2.3,15.34,15.34,0,0,1,29.18-4L52.63,27a8.19,8.19,0,0,0-2.45-4.46,9.49,9.49,0,0,0-5-2.37A7.58,7.58,0,0,0,43.9,20a5.52,5.52,0,0,0-2.81.69,3.88,3.88,0,0,0-2,4.07,4.37,4.37,0,0,0,2.31,2.72,14.84,14.84,0,0,0,1.62.69c.35.13.7.26,1,.42a2.87,2.87,0,0,1,1.56,1.33,5.17,5.17,0,0,1,.24,1A4.21,4.21,0,0,0,46.66,33a2.78,2.78,0,0,0,2.15,1,2.12,2.12,0,0,0,.44,0A3.55,3.55,0,0,0,51,32.85l0,0,.2-.25A4.36,4.36,0,0,0,52,31.49a7.29,7.29,0,0,0,.65-1.89l1.57-4.51A15.34,15.34,0,0,1,40.05,46.45Z" transform="translate(-0.86 -0.7)"/><path class="cls-1" d="M40.05,16.76a14.32,14.32,0,0,1,11.23,5.43,5.55,5.55,0,0,0-.42-.42,10.43,10.43,0,0,0-5.49-2.63A9.3,9.3,0,0,0,43.9,19a6.5,6.5,0,0,0-3.31.82A4.82,4.82,0,0,0,38.16,25,5.3,5.3,0,0,0,41,28.38a14.24,14.24,0,0,0,1.73.74c.36.14.69.26,1,.4a2,2,0,0,1,1.05.82,3.6,3.6,0,0,1,.17.73,5.28,5.28,0,0,0,1,2.5A3.79,3.79,0,0,0,48.81,35a4.07,4.07,0,0,0,.61,0,4.38,4.38,0,0,0,2.29-1.41l0,0c.09-.1.17-.21.25-.31l0,0a4.72,4.72,0,0,0,.85-1.3,8.66,8.66,0,0,0,.71-2l.55-1.58a14.6,14.6,0,0,1,.28,2.83,14.35,14.35,0,0,1-28.29,3.43l0-.17a14.56,14.56,0,0,1-.37-3.26A12.6,12.6,0,0,1,25.87,29,14.42,14.42,0,0,1,40.05,16.76m0-2A16.35,16.35,0,0,0,23.89,28.65a15.32,15.32,0,0,0-.19,2.46,16.72,16.72,0,0,0,.42,3.7h0A16.35,16.35,0,1,0,40.05,14.76ZM48.81,33a1.79,1.79,0,0,1-1.37-.66c-.61-.76-.47-1.88-.86-2.78a3.92,3.92,0,0,0-2.06-1.84c-.85-.39-1.77-.64-2.6-1.09a3.33,3.33,0,0,1-1.81-2.05,2.89,2.89,0,0,1,1.48-3A4.61,4.61,0,0,1,43.9,21a7.46,7.46,0,0,1,1.16.09,8.47,8.47,0,0,1,4.43,2.12,7,7,0,0,1,2.22,4.35,6.2,6.2,0,0,1-.7,3.54v0a2.87,2.87,0,0,1-.55.83l-.22.27.11-.16a2.92,2.92,0,0,1-1.27.91l-.28,0Z" transform="translate(-0.86 -0.7)"/></g></svg>