<svg xmlns="http://www.w3.org/2000/svg" viewBox="0 0 62.28 62.28"><defs><style>.cls-1{fill:#7bc087;}.cls-2,.cls-3{fill:none;stroke:#7bc087;stroke-miterlimit:10;}.cls-3{stroke-width:0.5px;}</style></defs><g id="Calque_2" data-name="Calque 2"><path class="cls-1" d="M32,2.7A29.14,29.14,0,1,1,2.86,31.84,29.17,29.17,0,0,1,32,2.7m0-2A31.14,31.14,0,1,0,63.14,31.84,31.14,31.14,0,0,0,32,.7Z" transform="translate(-0.86 -0.7)"/></g><g id="Calque_4" data-name="Calque 4"><path class="cls-2" d="M19.4,40.71l-4.63,4.63a3.22,3.22,0,0,0-2.95,1,2.65,2.65,0,0,0,0,3.86,2.58,2.58,0,0,0,3.92-.07c1.61-1.62.89-3,.89-3l4.69-4.69" transform="translate(-0.86 -0.7)"/><path class="cls-2" d="M20.3,41.53s-5.05-4.84-3.31-6.7,1.94,2.12,4.9,5.08S28.8,42.83,27,44.62,20.3,41.53,20.3,41.53Z" transform="translate(-0.86 -0.7)"/><line class="cls-2" x1="30.82" y1="33.65" x2="23.78" y2="41.32"/><polyline class="cls-2" points="30.74 25.03 41.6 14.22 47.92 11.58 45.05 18.15 34.84 29.27"/><line class="cls-2" x1="19.04" y1="36.68" x2="26.57" y2="29.18"/><line class="cls-3" x1="32.65" y1="26.64" x2="44.47" y2="14.95"/><line class="cls-2" x1="20.67" y1="38.49" x2="20.46" y2="38.7"/><line class="cls-3" x1="28.1" y1="31.14" x2="20.67" y2="38.49"/><line class="cls-2" x1="28.32" y1="30.92" x2="28.1" y2="31.14"/><line class="cls-2" x1="22.11" y1="39.81" x2="21.93" y2="40.01"/><line class="cls-3" x1="28.98" y1="32.18" x2="22.11" y2="39.81"/><line class="cls-2" x1="29.21" y1="31.92" x2="28.98" y2="32.18"/><line class="cls-2" x1="33.35" y1="27.31" x2="33.11" y2="27.58"/><line class="cls-3" x1="44.47" y1="14.95" x2="33.35" y2="27.31"/></g><g id="Calque_4_-_copie" data-name="Calque 4 - copie"><path class="cls-3" d="M41.83,39.35l-7.72-7.64L32.4,30l-.8-.79-1.76-1.74-12-11.84L29.14,28.18,30.8,30l.8.9,1.6,1.78,7,7.77" transform="translate(-0.86 -0.7)"/><path class="cls-2" d="M40.19,40.47l.22.24a13.22,13.22,0,0,1-1.92,1.22L17.29,18.85l-2.87-6.57,6.33,2.64,15,14.94,7.5,7.47a12.88,12.88,0,0,1-1.42,2" transform="translate(-0.86 -0.7)"/><line class="cls-2" x1="37.71" y1="41.32" x2="37.63" y2="41.23"/><line class="cls-2" x1="42.44" y1="36.68" x2="42.39" y2="36.63"/><path class="cls-2" d="M43.81,40.71l4.63,4.63a3.22,3.22,0,0,1,3,1,2.67,2.67,0,0,1,0,3.86,2.58,2.58,0,0,1-3.92-.07c-1.62-1.62-.89-3-.89-3L41.89,42.5" transform="translate(-0.86 -0.7)"/><path class="cls-2" d="M42.9,41.53S38,46.42,36.21,44.62c-1.25-1.24.25-1.6,2.28-2.69a13.22,13.22,0,0,0,1.92-1.22,11,11,0,0,0,.9-.8c.18-.18.36-.37.52-.56a12.88,12.88,0,0,0,1.42-2c1.26-2.16,1.71-3.85,3-2.5C48,36.69,42.9,41.53,42.9,41.53Z" transform="translate(-0.86 -0.7)"/></g></svg>