<svg xmlns="http://www.w3.org/2000/svg" viewBox="0 0 62.28 62.28"><defs><style>.cls-1{fill:#f9c7c6;}</style></defs><g id="Calque_2" data-name="Calque 2"><path class="cls-1" d="M32,2.83h0c.91,0,1.84,0,2.75.13A29.14,29.14,0,0,1,32.1,61.11c-.91,0-1.83,0-2.74-.13A29.14,29.14,0,0,1,12.5,10.38,29,29,0,0,1,32,2.83m0-2A31.14,31.14,0,0,0,29.17,63c1,.09,2,.13,2.93.13A31.14,31.14,0,0,0,35,1C34,.88,33,.83,32,.83Z" transform="translate(-0.93 -0.83)"/></g><g id="Calque_27" data-name="Calque 27"><path class="cls-1" d="M16.57,51.89" transform="translate(-0.93 -0.83)"/><path class="cls-1" d="M17.5,23.68a22.85,22.85,0,0,0-6.63,9.92c-2,6.19,2.14,10.95,6.21,0,0,0-3.27,10.71-.65,18.21A19.69,19.69,0,0,0,32.67,52l.14-19.58s.61-4.5-2.68-7.14C30.13,25.25,24,29.31,17.5,23.68Z" transform="translate(-0.93 -0.83)"/><path class="cls-1" d="M17,23.15a21.83,21.83,0,0,0-7,10.77c-.54,2-.65,8.32,3.19,6.79,2.52-1,3.75-4.58,4.63-6.87l-1.45-.4A38.87,38.87,0,0,0,14.69,46a22.72,22.72,0,0,0,.57,4.5c.19.79.29,1.68,1,2.09a16.51,16.51,0,0,0,5.46,1.59,20.59,20.59,0,0,0,11.3-1.58.78.78,0,0,0,.37-.65c0-6.55-.11-13.13.15-19.68a9,9,0,0,0-2.91-7.57.77.77,0,0,0-.91-.12C26,27,21.23,25.85,18,23.15c-.74-.62-1.8.43-1.07,1.06,3.7,3.12,9.22,4.48,13.54,1.69l-.91-.12C32.46,28.21,32.07,31.66,32,35l-.1,13.23,0,3.74.37-.65a18.94,18.94,0,0,1-11.95,1.09,18.39,18.39,0,0,1-3-1,1.78,1.78,0,0,1-.5-.24c.41.42,0-.43,0-.57-.11-.4-.2-.81-.28-1.22-1-5-.24-10.69,1.25-15.58.28-.94-1.11-1.28-1.45-.4A18.58,18.58,0,0,1,14,38c-.37.48-1.13,1.49-1.86,1.36-1.33-.24-1.11-3-1-3.9.6-4.22,3.54-8.63,6.84-11.29C18.79,23.6,17.72,22.55,17,23.15Z" transform="translate(-0.93 -0.83)"/><path class="cls-1" d="M46.1,29.4l.15.12.58.5a19.51,19.51,0,0,1,1.84,1.91A14.11,14.11,0,0,1,52,38.28c.12.72.31,2.88-.77,3.1-.56.11-1.15-.57-1.47-.92a13.23,13.23,0,0,1-2.16-3.82c-.36-.86-1.76-.54-1.45.4,1.36,4.12,2.09,9.07.92,13.3,0,.17-.48,1.09,0,.64l-.1.05a4.5,4.5,0,0,1-.62.24,17.6,17.6,0,0,1-2.87.77,18.26,18.26,0,0,1-10.23-1l.55.72c0-5.29.05-10.59-.12-15.88,0-.25,0-.17,0-.08,0-.1,0-.2,0-.31a9.15,9.15,0,0,1,0-1.17,5.56,5.56,0,0,1,2.15-3.73l-.91.12c3.78,2.24,8.64,1.28,12-1.28.76-.58,0-1.89-.75-1.3-2.91,2.24-7.1,3.26-10.45,1.29a.77.77,0,0,0-.91.11,7.1,7.1,0,0,0-2.63,5.84c0,.2,0,.39,0,.59s0-.27,0,.09,0,.9,0,1.36l.09,11,0,3.3a.79.79,0,0,0,.55.73A19.76,19.76,0,0,0,43.7,53.52a18.13,18.13,0,0,0,3.15-.86c.63-.23,1.07-.34,1.34-1,1.23-2.93,1-6.55.58-9.62a31.31,31.31,0,0,0-1.2-5.41l-1.45.4c.81,2,2.16,5.4,4.63,5.8,1.83.3,2.67-1.57,2.79-3.08.21-2.75-1.3-5.56-2.87-7.7a18.39,18.39,0,0,0-3.82-4C46.08,27.53,45.33,28.83,46.1,29.4Z" transform="translate(-0.93 -0.83)"/></g><g id="Calque_29" data-name="Calque 29"><circle class="cls-1" cx="23.84" cy="15.19" r="7.16"/><path class="cls-1" d="M45.21,21.41a5.38,5.38,0,1,1-4.41-5.3,5.45,5.45,0,0,1,4.41,5.3.75.75,0,0,0,1.5,0A7,7,0,0,0,42.23,15a6.88,6.88,0,1,0,4.48,6.45A.75.75,0,0,0,45.21,21.41Z" transform="translate(-0.93 -0.83)"/><path class="cls-1" d="M18.64,23.29" transform="translate(-0.93 -0.83)"/></g></svg>