<svg xmlns="http://www.w3.org/2000/svg" viewBox="0 0 62.28 62.28"><defs><style>.cls-1{fill:#7acadd;}</style></defs><g id="Calque_2" data-name="Calque 2"><path class="cls-1" d="M32,2.7A29.14,29.14,0,1,1,2.86,31.84,29.17,29.17,0,0,1,32,2.7m0-2A31.14,31.14,0,1,0,63.14,31.84,31.14,31.14,0,0,0,32,.7Z" transform="translate(-0.86 -0.7)"/></g><g id="Calque_16" data-name="Calque 16"><path class="cls-1" d="M30.72,21.8c-.59.2.78-.24.52.43a2.48,2.48,0,0,1,0-.29,1,1,0,0,1,0-.43.63.63,0,0,1,.86-.26c.94.46.67,1.79.16,2.47a3.45,3.45,0,0,1-4.71.47A4.84,4.84,0,0,1,26.15,19a5.74,5.74,0,0,1,4.23-3.8,5.66,5.66,0,0,1,5.81,2.67,1,1,0,0,0,1.73-1,7.51,7.51,0,0,0-14,3.21c-.22,3.11,1.82,6.33,5,6.74a5.57,5.57,0,0,0,4.2-1.18A4.14,4.14,0,0,0,34.48,21a2.81,2.81,0,0,0-4.61-1c-1.08,1.19-.86,4.42,1.38,3.69,1.22-.39.7-2.32-.53-1.93Z" transform="translate(-0.86 -0.7)"/><path class="cls-1" d="M36.15,16.4c2.5-1.6,5.49-2.94,8.48-2,2.4.76,4.24,3.55,2.72,5.92a1,1,0,0,0,.86,1.5,5.34,5.34,0,0,1,5.6,4.33,5.34,5.34,0,0,1-3.75,5.69,1,1,0,0,0,0,1.93,5.46,5.46,0,0,1,3,6.84,5.49,5.49,0,0,1-6.91,2.81,1,1,0,0,0-1.13.46,1,1,0,0,0,.16,1.21c.69.87-.56,2.28-1.15,2.81a6.77,6.77,0,0,1-3.43,1.6,6.62,6.62,0,0,1-6.46-2.95,1,1,0,0,0-1.73,0,3.64,3.64,0,0,1-3.08,1.57,4.2,4.2,0,0,1-3.3-1.7c-2-2.59-1.11-6.13.85-8.45.83-1-.58-2.4-1.41-1.41-2.71,3.2-3.67,7.92-.79,11.35,2.46,2.92,7.32,3,9.46-.35H32.38a8.67,8.67,0,0,0,9.29,3.75,8.42,8.42,0,0,0,4.47-2.75c1.15-1.43,1.64-3.35.42-4.88l-1,1.67a7.5,7.5,0,0,0,8-2,7.08,7.08,0,0,0,.72-8.21,7.24,7.24,0,0,0-3.77-3.25v1.93a7.36,7.36,0,0,0,5.19-7.89,7.32,7.32,0,0,0-7.57-6.06l.87,1.51c2-3.16.06-7.19-3.15-8.57-3.68-1.58-7.61-.13-10.79,1.91-1.08.69-.08,2.42,1,1.72Z" transform="translate(-0.86 -0.7)"/><path class="cls-1" d="M9.23,33.16c9.25,1.23,19.46.66,27.82-3.86a25.48,25.48,0,0,0,6-4.53c.45-.46-.25-1.16-.7-.7-6.47,6.6-16.27,8.63-25.2,8.63a60.59,60.59,0,0,1-8-.54c-.63-.09-.63.91,0,1Z" transform="translate(-0.86 -0.7)"/><path class="cls-1" d="M40.54,32.19a5.1,5.1,0,0,1,2.92,1.92,5.2,5.2,0,0,1,.95,3.67c0,.26.25.5.5.5a.53.53,0,0,0,.5-.5,6.13,6.13,0,0,0-4.61-6.56.5.5,0,0,0-.26,1Z" transform="translate(-0.86 -0.7)"/><path class="cls-1" d="M35.07,37.73a1.35,1.35,0,0,0-1.85-.13,2.15,2.15,0,0,0-.54,1.7,2.57,2.57,0,0,0,2.57,2.37,3.47,3.47,0,0,0,2.94-5.33,3.88,3.88,0,0,0-3.52-1.59c-1.58,0-3.18.33-4.75.51l-9.64,1.09L9.15,37.62a1,1,0,0,0-1,1,1,1,0,0,0,1,1L23.74,38l7.17-.82c1.18-.13,2.36-.32,3.55-.38.81,0,1.71,0,2.13.81a1.41,1.41,0,0,1-.66,2,1.14,1.14,0,0,1-1,.06.47.47,0,0,1-.27-.25.78.78,0,0,1,0-.22c0-.29.1-.23,0-.1l-.44.25h-.07l-.51-.14h0a1,1,0,0,0,1.41,0,1,1,0,0,0,0-1.41Z" transform="translate(-0.86 -0.7)"/><path class="cls-1" d="M9.15,29l21-2.05a1,1,0,0,0,1-1,1,1,0,0,0-1-1L9.15,27a1,1,0,0,0-1,1,1,1,0,0,0,1,1Z" transform="translate(-0.86 -0.7)"/></g></svg>