<svg xmlns="http://www.w3.org/2000/svg" viewBox="0 0 62.28 62.28"><defs><style>.cls-1,.cls-3,.cls-4{fill:#ef7d81;}.cls-2{fill:none;}.cls-2,.cls-3,.cls-4{stroke:#ef7d81;stroke-miterlimit:10;}.cls-3{stroke-width:0.5px;}</style></defs><g id="Calque_2" data-name="Calque 2"><path class="cls-1" d="M32,2.7A29.14,29.14,0,1,1,2.86,31.84,29.17,29.17,0,0,1,32,2.7m0-2A31.14,31.14,0,1,0,63.14,31.84,31.14,31.14,0,0,0,32,.7Z" transform="translate(-0.86 -0.7)"/></g><g id="Calque_6" data-name="Calque 6"><path class="cls-2" d="M31.28,22.11s1.94-7.91,7.92-2.67,9.52,5.29,9.52,5.29,10.48.35,8.71,5.42S46,53.44,34.65,47.58,31.28,22.11,31.28,22.11Z" transform="translate(-0.86 -0.7)"/><path class="cls-3" d="M39.77,30s-.3-7.9-6.12-2.92C33.65,27.08,37.84,26.39,39.77,30Z" transform="translate(-0.86 -0.7)"/><path class="cls-3" d="M51.46,34.57s-1-7.85-6.35-2.37C45.11,32.2,49.22,31.14,51.46,34.57Z" transform="translate(-0.86 -0.7)"/><path class="cls-4" d="M45.11,28.59" transform="translate(-0.86 -0.7)"/><path class="cls-4" d="M33.65,33.05a20.22,20.22,0,0,0,6.12,3.87,21.22,21.22,0,0,0,6.78,1.34S36.6,47.71,33.65,33.05Z" transform="translate(-0.86 -0.7)"/><path class="cls-2" d="M30.78,43.91" transform="translate(-0.86 -0.7)"/><path class="cls-2" d="M30.78,43.91a10.73,10.73,0,0,1-2.12.9C16.45,48.55,8.44,29,8.44,29s-4.16-7,3.78-7.46,10.51-2.87,10.51-2.87,7.72-7.09,10-2.23c.23.49.5,1.14.78,1.91" transform="translate(-0.86 -0.7)"/><path class="cls-3" d="M12.92,30.27s5.86,5.32,6.37-2.33C19.29,27.94,16.86,31.42,12.92,30.27Z" transform="translate(-0.86 -0.7)"/><path class="cls-4" d="M30.55,24" transform="translate(-0.86 -0.7)"/><path class="cls-4" d="M30.78,23.71" transform="translate(-0.86 -0.7)"/><path class="cls-3" d="M30.55,24l-.12.12a5.86,5.86,0,0,1-6.12,1.65s3.07,3.05,5,1.56a1.92,1.92,0,0,0,.36-.34" transform="translate(-0.86 -0.7)"/><path class="cls-4" d="M22.85,23.93" transform="translate(-0.86 -0.7)"/><path class="cls-4" d="M28.88,35.25l-.32.09a18.3,18.3,0,0,0-2,.74A21.39,21.39,0,0,0,20.86,40s.21-9.69,7.7-7.89l.35.09" transform="translate(-0.86 -0.7)"/><path class="cls-4" d="M29.51,27.15" transform="translate(-0.86 -0.7)"/></g></svg>