<svg xmlns="http://www.w3.org/2000/svg" viewBox="0 0 62.28 62.28"><defs><style>.cls-1{fill:#f2f8fb;}</style></defs><g id="Calque_2" data-name="Calque 2"><path class="cls-1" d="M32,2.83h0c.91,0,1.84,0,2.75.13A29.14,29.14,0,0,1,32.1,61.11c-.91,0-1.83,0-2.74-.13A29.14,29.14,0,0,1,12.5,10.38,29,29,0,0,1,32,2.83m0-2A31.14,31.14,0,0,0,29.17,63c1,.09,2,.13,2.93.13A31.14,31.14,0,0,0,35,1C34,.88,33,.83,32,.83Z" transform="translate(-0.93 -0.83)"/></g><g id="Calque_28" data-name="Calque 28"><path class="cls-1" d="M61.76,26.1,60.62,22c-28.56-3.5-57,0-57,0l-.12-.27L2.8,24.91,2,28.49v6.73L2.69,39l1,3s28.33,11.62,57,0l1-3.83.57-3.31V29.23ZM14.94,38.56C6.21,34.72,5.52,25.15,5.52,25.15,24.7,27.77,28.46,34,28.46,34S23.67,42.39,14.94,38.56Zm34.25,0C40.46,42.39,35.67,34,35.67,34s3.76-6.27,22.94-8.89C58.61,25.15,57.92,34.72,49.19,38.56Z" transform="translate(-0.93 -0.83)"/><path class="cls-1" d="M62.12,26,61,21.94a.38.38,0,0,0-.36-.28,250.76,250.76,0,0,0-53.25-.38c-.92.08-1.85.17-2.77.28l-.72.08c-.43,0,.07.14,0-.06s-.62-.2-.69.09c-.51,2.18-1.3,4.48-1.59,6.7a21.63,21.63,0,0,0,0,2.79c0,1.32-.09,2.67,0,4a24.93,24.93,0,0,0,1.62,6.63c.37,1,1.95,1.2,2.89,1.51a86.52,86.52,0,0,0,23.44,4.19,79.06,79.06,0,0,0,17-1.06,69.72,69.72,0,0,0,9.55-2.36c.77-.25,1.54-.51,2.3-.79a8.46,8.46,0,0,0,2.31-.89c.33-.3.34-.58.46-1a30.8,30.8,0,0,0,1.35-7.41,59.92,59.92,0,0,0-.4-7.81c-.06-.47-.81-.48-.75,0a33.79,33.79,0,0,1-.26,12.41c-.18.73-.37,1.46-.55,2.19a4.18,4.18,0,0,1-.22.86c-.25.45-.06.24-.75.46-3.07,1-6,2.1-9.18,2.84A75.64,75.64,0,0,1,33.13,46.8a87.37,87.37,0,0,1-25-3.66c-1.46-.44-2.94-.89-4.34-1.47-.14-.06.21.21.21.22a5.39,5.39,0,0,0-.22-.68c-.22-.69-.47-1.38-.67-2.08-.3-1.05-.45-2.16-.66-3.23a19.41,19.41,0,0,1-.14-3.55c0-1.19-.07-2.41,0-3.6a26.08,26.08,0,0,1,.82-3.62c.25-1.09.51-2.17.77-3.26L3.22,22l.11.27a.37.37,0,0,0,.33.18A248.32,248.32,0,0,1,42.12,21c6.19.21,12.36.66,18.5,1.4l-.36-.27L61.4,26.2A.37.37,0,0,0,62.12,26Z" transform="translate(-0.93 -0.83)"/><path class="cls-1" d="M15.13,38.23A16.08,16.08,0,0,1,5.9,25.15l-.48.36c6.9,1,14.59,2.4,20.39,6.54a12.42,12.42,0,0,1,1.58,1.32c.17.16.51.68.66.73s.05.11.08.13c-.15,0,.16-.38,0-.32s-.15.25-.19.29a21.74,21.74,0,0,1-1.76,2.08,9.8,9.8,0,0,1-11,1.95c-.44-.18-.82.46-.38.65A10.48,10.48,0,0,0,25,38.18a12.43,12.43,0,0,0,3.79-4,.37.37,0,0,0,0-.38,8.74,8.74,0,0,0-2.44-2.33A31.74,31.74,0,0,0,16.45,27,74.08,74.08,0,0,0,5.62,24.79c-.22,0-.49.09-.47.36a16.8,16.8,0,0,0,9.6,13.73C15.19,39.08,15.57,38.43,15.13,38.23Z" transform="translate(-0.93 -0.83)"/><path class="cls-1" d="M49,38.23a9.72,9.72,0,0,1-10.31-1.32,12.74,12.74,0,0,1-2.2-2.32c-.08-.11-.31-.6-.44-.65s-.08.26,0,.25.36-.45.47-.56a9.84,9.84,0,0,1,1.31-1.19A25.23,25.23,0,0,1,44.12,29a64.18,64.18,0,0,1,14.59-3.52l-.48-.36A16.08,16.08,0,0,1,49,38.23c-.44.2-.06.85.38.65A16.8,16.8,0,0,0,59,25.15c0-.27-.25-.39-.47-.36A60.33,60.33,0,0,0,42.32,29a19.87,19.87,0,0,0-6.25,4,5,5,0,0,0-.72.88.37.37,0,0,0,0,.38,12.54,12.54,0,0,0,3.79,4,10.48,10.48,0,0,0,10.24.7C49.82,38.69,49.44,38.05,49,38.23Z" transform="translate(-0.93 -0.83)"/></g></svg>