<svg xmlns="http://www.w3.org/2000/svg" viewBox="0 0 62.28 62.28"><defs><style>.cls-1{fill:#a2d6d5;}.cls-2,.cls-3,.cls-4{fill:none;stroke:#a2d6d5;stroke-miterlimit:10;}.cls-3{stroke-width:0.5px;}.cls-4{stroke-width:0.25px;}</style></defs><g id="Calque_2" data-name="Calque 2"><path class="cls-1" d="M32,2.83h0c.91,0,1.84,0,2.75.13A29.14,29.14,0,0,1,32.1,61.11c-.91,0-1.83,0-2.74-.13A29.14,29.14,0,0,1,12.5,10.38,29,29,0,0,1,32,2.83m0-2A31.14,31.14,0,0,0,29.17,63c1,.09,2,.13,2.93.13A31.14,31.14,0,0,0,35,1C34,.88,33,.83,32,.83Z" transform="translate(-0.93 -0.83)"/></g><g id="Calque_23" data-name="Calque 23"><path class="cls-1" d="M17,31.7a17.25,17.25,0,0,1,7.38-8.85,1.14,1.14,0,0,0-.27-2.06,7.1,7.1,0,0,1-4.66-9.28c.43-1.22-1.42-1.94-2-.87-5.33,9-8.88,19.88-4.4,30A24.17,24.17,0,0,0,36.52,54.8c5.5-.41,10.85-3.14,12.8-8.57a1.1,1.1,0,0,0-.29-1.1A25,25,0,0,0,33.74,37.8c-3.24-.33-6.36.4-9.58.44-2.61,0-5.86-.8-6.67-3.64a1.13,1.13,0,0,0-2.17.6,7.42,7.42,0,0,0,5.36,4.89c3.23.92,6.58,0,9.85-.14a22.56,22.56,0,0,1,16.91,6.77l-.29-1.09c-1.58,4.42-6.2,6.58-10.63,6.92a21.85,21.85,0,0,1-12.73-3A22.25,22.25,0,0,1,13.46,26.84a43.11,43.11,0,0,1,5.9-15.06l-2.06-.87A9.36,9.36,0,0,0,23.53,23l-.27-2.06a19.73,19.73,0,0,0-8.41,10.2c-.5,1.36,1.68,1.95,2.17.6Z" transform="translate(-0.93 -0.83)"/><path class="cls-1" d="M22.77,32.41a12.87,12.87,0,0,0,4.64,6.77.76.76,0,0,0,1-.27.78.78,0,0,0-.27-1,11.11,11.11,0,0,1-4-5.87.75.75,0,0,0-1.45.4Z" transform="translate(-0.93 -0.83)"/><path class="cls-1" d="M28,52.24a11.21,11.21,0,0,0-3.67,2.69.76.76,0,0,0,0,1.06.75.75,0,0,0,1.06,0c.24-.26.49-.52.75-.76l.4-.34.12-.1s.14-.11,0,0l.21-.16a11.63,11.63,0,0,1,1.87-1.08.75.75,0,0,0,.27-1,.77.77,0,0,0-1-.27Z" transform="translate(-0.93 -0.83)"/><path class="cls-1" d="M33,43.52a12.65,12.65,0,0,0,5.29,10.15.75.75,0,0,0,1-.27.77.77,0,0,0-.27-1,11.07,11.07,0,0,1-4.55-8.85.75.75,0,0,0-1.5,0Z" transform="translate(-0.93 -0.83)"/><path class="cls-1" d="M39.84,44.83h0l.06-.39h0l.16-.36h0l.24-.3h0l.3-.24h0l.36-.16h0l.4-.06h0l.4.06h0l.36.16h0l.3.24h0l.23.3h0l.15.35h0l.05.4h0l-.05.4h0a1.08,1.08,0,0,0,0-.59,1,1,0,0,0-.17-.56,1.72,1.72,0,0,0-.9-.69l-.4-.05a1.47,1.47,0,0,0-.76.2l-.3.23a1.45,1.45,0,0,0-.38.67,1.49,1.49,0,0,0,0,.81,1.51,1.51,0,0,0,.08.19s.05.13.08.19.23.3.24.3h0l.31.23h0a1.28,1.28,0,0,0,.36.16h0l.4,0a1.13,1.13,0,0,0,.41,0,1.66,1.66,0,0,0,.68-.39h0l.11-.15.12-.15h0l.15-.36h0l.05-.4h0a1.06,1.06,0,0,0-.13-.58,1.14,1.14,0,0,0-.31-.48,1,1,0,0,0-.48-.31,1.15,1.15,0,0,0-.58-.13l-.39.05a1.56,1.56,0,0,0-.67.39l-.23.3a1.48,1.48,0,0,0-.21.76Z" transform="translate(-0.93 -0.83)"/></g><g id="Calque_25" data-name="Calque 25"><circle class="cls-2" cx="47.97" cy="32.51" r="2.98"/><circle class="cls-3" cx="37.34" cy="23.85" r="1.35"/><circle class="cls-3" cx="40.23" cy="15.31" r="1.54"/><circle class="cls-4" cx="34" cy="8.31" r="0.87"/></g></svg>