<svg xmlns="http://www.w3.org/2000/svg" viewBox="0 0 62.28 62.28"><defs><style>.cls-1{fill:#9aa16d;}</style></defs><g id="Calque_2" data-name="Calque 2"><path class="cls-1" d="M32,2.7A29.14,29.14,0,1,1,2.86,31.84,29.17,29.17,0,0,1,32,2.7m0-2A31.14,31.14,0,1,0,63.14,31.84,31.14,31.14,0,0,0,32,.7Z" transform="translate(-0.86 -0.7)"/></g><g id="Calque_21" data-name="Calque 21"><path class="cls-1" d="M16.63,17.44a10.1,10.1,0,0,0,0,14A43.06,43.06,0,0,1,20,34.79a9.54,9.54,0,0,1,1.85,4.45c.59,3.64-.52,7.3-1.53,10.76a1.13,1.13,0,0,0,2.17.6c1.7-5.83,3.3-12.9-1.31-17.87-2-2.14-4.42-3.52-5.07-6.57A7.84,7.84,0,0,1,18.22,19a1.12,1.12,0,0,0-1.59-1.59Z" transform="translate(-0.86 -0.7)"/><path class="cls-1" d="M29.68,7a14.37,14.37,0,0,0-3.27,11.24,14.12,14.12,0,0,0,2,5.76c1.1,1.72,2.71,3,3.89,4.65,2.84,3.92.76,8.8-.77,12.79s-2.63,8.19-.68,12.14c.64,1.29,2.58.15,1.94-1.14-1.86-3.76,0-8.06,1.39-11.64s2.64-7.82,1-11.61A15.29,15.29,0,0,0,32.07,25a12.46,12.46,0,0,1-3-5A12.21,12.21,0,0,1,31.27,8.62c.94-1.09-.65-2.69-1.59-1.59Z" transform="translate(-0.86 -0.7)"/><path class="cls-1" d="M40.44,18.21c2.88.21,4.94,2.8,5.55,5.46.79,3.48-.42,7.07-1.61,10.31-2,5.48-4.51,12.15-.54,17.41.86,1.14,2.82,0,1.94-1.14-4.63-6.13.68-13.78,2.15-20,.75-3.19.87-6.67-.72-9.63A8.43,8.43,0,0,0,40.44,16c-1.45-.1-1.44,2.15,0,2.25Z" transform="translate(-0.86 -0.7)"/></g></svg>