<svg xmlns="http://www.w3.org/2000/svg" viewBox="0 0 62.28 62.28"><defs><style>.cls-1{fill:#b175b0;}.cls-2{fill:none;stroke:#b175b0;stroke-miterlimit:10;}</style></defs><g id="Calque_2" data-name="Calque 2"><path class="cls-1" d="M32,2.7A29.14,29.14,0,1,1,2.86,31.84,29.17,29.17,0,0,1,32,2.7m0-2A31.14,31.14,0,1,0,63.14,31.84,31.14,31.14,0,0,0,32,.7Z" transform="translate(-0.86 -0.7)"/></g><g id="Calque_8" data-name="Calque 8"><path class="cls-1" d="M31.77,12a7.82,7.82,0,0,1,1.09.07,8.08,8.08,0,0,1,2,.6c1,.41,1.69.74,2.62,1.18,0,0,1.38.67,2.81,1.3,1.13.5,2.2,1,3.64,1.48,1.18.42,2.09.68,3,.93,1.5.42,2.65.68,3.08.78.86.19,1.61.34,2.2.44a21.29,21.29,0,0,1-.08,4.6c0,.22-.15,1-.41,2.63-.34,2.1-.41,2.42-.46,2.67a31,31,0,0,1-.8,3c-.45,1.47-.87,2.58-1,3A32.47,32.47,0,0,1,47,39.76a33.13,33.13,0,0,1-2.85,4,41.88,41.88,0,0,1-3.34,3.74A36.91,36.91,0,0,1,36.66,51a34.43,34.43,0,0,1-4.85,3" transform="translate(-0.86 -0.7)"/><path class="cls-2" d="M31.56,54.44c-.64-.33-1.43-.76-2.31-1.3a37.2,37.2,0,0,1-3.83-2.7A35.47,35.47,0,0,1,22,47.29a34.72,34.72,0,0,1-3-3.64,35.14,35.14,0,0,1-2.46-4,36.15,36.15,0,0,1-2.36-5,36.15,36.15,0,0,1-1.44-4.9,39.59,39.59,0,0,1-.88-5.09,38.56,38.56,0,0,1-.11-6.34c1-.18,2.22-.42,3.65-.76,1.23-.3,2.25-.54,3.6-1,1.51-.5,2.63-1,3.57-1.4.76-.34.52-.25,3.46-1.64,0,0,.93-.44,3-1.29a7.57,7.57,0,0,1,2-.64,6.55,6.55,0,0,1,.8-.07h.05" transform="translate(-0.86 -0.7)"/><path class="cls-2" d="M31.56,54.44" transform="translate(-0.86 -0.7)"/><path class="cls-2" d="M31.71,54.52" transform="translate(-0.86 -0.7)"/><path class="cls-2" d="M31.71,54.52" transform="translate(-0.86 -0.7)"/><path class="cls-2" d="M31.76,54.54" transform="translate(-0.86 -0.7)"/><path class="cls-2" d="M31.76,54.54" transform="translate(-0.86 -0.7)"/><path class="cls-2" d="M31.81,54.52" transform="translate(-0.86 -0.7)"/></g><g id="Calque_9" data-name="Calque 9"><polygon class="cls-1" points="30.79 53.23 30.95 53.31 30.95 53.45 30.76 53.36 30.79 53.23"/></g><g id="Calque_10" data-name="Calque 10"><path class="cls-2" d="M31.75,55.1" transform="translate(-0.86 -0.7)"/><polygon class="cls-1" points="30.95 53.31 30.95 54.43 30.33 54.11 30.95 53.31"/></g><g id="Calque_11" data-name="Calque 11"><path class="cls-1" d="M28.91,43.91s-6.27-1.6-9.46-9.2-1.51-9.91-.65-10c0,0,1.6-.44,1.47,2.81S21.44,37.64,28.91,43.91Z" transform="translate(-0.86 -0.7)"/></g></svg>